<?xml version="1.0" encoding="utf-8"?>
<!-- Generator: Adobe Illustrator 27.5.0, SVG Export Plug-In . SVG Version: 6.00 Build 0)  -->
<svg version="1.1" xmlns="http://www.w3.org/2000/svg" xmlns:xlink="http://www.w3.org/1999/xlink" x="0px" y="0px"
	 viewBox="0 0 1200 800" style="enable-background:new 0 0 1200 800;" xml:space="preserve">
<g id="Background">
	
		<radialGradient id="SVGID_1_" cx="633.0032" cy="399.5905" r="1410.1654" gradientTransform="matrix(1.5 0 0 0.6667 -300 133.593)" gradientUnits="userSpaceOnUse">
		<stop  offset="0.169" style="stop-color:#F5F5F5"/>
		<stop  offset="0.9919" style="stop-color:#C7C7C7"/>
	</radialGradient>
	<rect style="fill:url(#SVGID_1_);" width="1200" height="800"/>
</g>
<g id="Graphic_Elements">
	<g>
		<defs>
			<rect id="SVGID_00000087373793274715521260000005440265111194962351_" width="1200" height="800"/>
		</defs>
		<clipPath id="SVGID_00000052089350545244114180000007167994966258481305_">
			<use xlink:href="#SVGID_00000087373793274715521260000005440265111194962351_"  style="overflow:visible;"/>
		</clipPath>
		<g style="clip-path:url(#SVGID_00000052089350545244114180000007167994966258481305_);">
			<g>
				<g>
					<path style="fill:#9EA5B0;" d="M-72.057-25.322c0.632,0-62.597,125.194-62.597,125.194l-62.491-124.983L-72.057-25.322z"/>
					<path style="fill:#3D4B61;" d="M178.129-25.322c0.632,0-62.597,125.194-62.597,125.194L53.041-25.111L178.129-25.322z"/>
					<path style="fill:#55719E;" d="M-134.594,99.872c-0.632,0,62.597-125.194,62.597-125.194L-9.506,99.661L-134.594,99.872z"/>
					<path style="fill:#CED2D8;" d="M-72.048-25.322c-0.632,0,62.597-125.194,62.597-125.194L53.041-25.533L-72.048-25.322z"/>
					<path style="fill:#CED0DD;" d="M-197.141,225.276c-0.632,0,62.597-125.194,62.597-125.194l62.491,124.983L-197.141,225.276z"/>
					<path style="fill:#2A4E86;" d="M-259.687,99.872c-0.632,0,62.597-125.194,62.597-125.194l62.491,124.983L-259.687,99.872z"/>
					<path style="fill:#7F95B6;" d="M-9.501,99.872c-0.632,0,62.597-125.194,62.597-125.194l62.491,124.983L-9.501,99.872z"/>
					<path style="fill:#3D4B61;" d="M-72.048,225.065c-0.632,0,62.597-125.194,62.597-125.194l62.492,124.983L-72.048,225.065z"/>
					<path style="fill:#152743;" d="M-9.511,99.872c0.632,0-62.597,125.194-62.597,125.194l-62.492-124.983L-9.511,99.872z"/>
					<path style="fill:#9EA5B0;" d="M115.582,99.872c0.632,0-62.597,125.194-62.597,125.194L-9.506,100.082L115.582,99.872z"/>
					<path style="fill:#2A4E86;" d="M53.036,225.276c0.632,0-62.597,125.194-62.597,125.194l-62.491-124.983L53.036,225.276z"/>
					<path style="fill:#0C1E39;" d="M-9.511-150.516c0.632,0-62.597,125.194-62.597,125.194l-62.492-124.983L-9.511-150.516z"/>
					<path style="fill:#2A4E86;" d="M115.582-150.516c0.632,0-62.597,125.194-62.597,125.194L-9.506-150.305L115.582-150.516z"/>
					<path style="fill:#0C1E39;" d="M53.045,225.065c-0.632,0,62.597-125.194,62.597-125.194l62.492,124.983L53.045,225.065z"/>
					
						<linearGradient id="SVGID_00000021095915498389202270000014303079941954959765_" gradientUnits="userSpaceOnUse" x1="72.0092" y1="-97.4032" x2="197.1022" y2="-97.4032">
						<stop  offset="0.169" style="stop-color:#F5F5F5"/>
						<stop  offset="0.9919" style="stop-color:#C7C7C7"/>
					</linearGradient>
					<path style="fill:url(#SVGID_00000021095915498389202270000014303079941954959765_);" d="M72.014-34.806
						C71.382-34.806,134.611-160,134.611-160l62.491,124.983L72.014-34.806z"/>
					<path style="fill:#3D4B61;" d="M-72.048,475.874c-0.632,0,62.597-125.194,62.597-125.194l62.492,124.983L-72.048,475.874z"/>
					<path style="fill:#2A4E86;" d="M53.036-25.322c0.632,0-62.597,125.194-62.597,125.194L-72.052-25.111L53.036-25.322z"/>
				</g>
			</g>
			<g>
				<path style="fill:#9EA5B0;" d="M1219.356,696.964c0.632,0-62.597,125.194-62.597,125.194l-62.491-124.983L1219.356,696.964z"/>
				<path style="fill:#55719E;" d="M1156.819,822.158c-0.632,0,62.597-125.194,62.597-125.194l62.491,124.983L1156.819,822.158z"/>
				<path style="fill:#CED2D8;" d="M1219.365,696.964c-0.632,0,62.597-125.194,62.597-125.194l62.491,124.983L1219.365,696.964z"/>
				<path style="fill:#CED0DD;" d="M1094.272,947.563c-0.632,0,62.597-125.194,62.597-125.194l62.491,124.983L1094.272,947.563z"/>
				<path style="fill:#2A4E86;" d="M1031.726,822.158c-0.632,0,62.597-125.194,62.597-125.194l62.491,124.983L1031.726,822.158z"/>
				<path style="fill:#7F95B6;" d="M1281.912,822.158c-0.632,0,62.597-125.194,62.597-125.194L1407,821.947L1281.912,822.158z"/>
				<path style="fill:#3D4B61;" d="M1219.365,947.352c-0.632,0,62.597-125.194,62.597-125.194l62.491,124.983L1219.365,947.352z"/>
				<path style="fill:#152743;" d="M1281.902,822.158c0.632,0-62.597,125.194-62.597,125.194l-62.491-124.983L1281.902,822.158z"/>
				<path style="fill:#9EA5B0;" d="M1406.995,822.158c0.632,0-62.597,125.194-62.597,125.194l-62.492-124.983L1406.995,822.158z"/>
				<path style="fill:#0C1E39;" d="M1281.902,571.771c0.632,0-62.597,125.194-62.597,125.194l-62.491-124.983L1281.902,571.771z"/>
				<path style="fill:#7F95B6;" d="M1344.449,446.577c0.632,0-62.597,125.194-62.597,125.194l-62.492-124.983L1344.449,446.577z"/>
				<path style="fill:#7F95B6;" d="M1262.542,311.516c0.632,0-62.597,125.194-62.597,125.194l-62.491-124.983L1262.542,311.516z"/>
				<path style="fill:#7F95B6;" d="M1156.819,1072.546c-0.632,0,62.597-125.194,62.597-125.194l62.491,124.983L1156.819,1072.546z"
					/>
				<path style="fill:#2A4E86;" d="M1344.449,696.964c0.632,0-62.597,125.194-62.597,125.194l-62.492-124.983L1344.449,696.964z"/>
				<path style="fill:#9EA5B0;" d="M1136.139,561.904c0.632,0-62.597,125.194-62.597,125.194l-62.491-124.983L1136.139,561.904z"/>
				
					<linearGradient id="SVGID_00000150804870903558816690000003436753144247693197_" gradientUnits="userSpaceOnUse" x1="1136.1439" y1="499.3068" x2="1261.2369" y2="499.3068">
					<stop  offset="0.169" style="stop-color:#F5F5F5"/>
					<stop  offset="0.9919" style="stop-color:#C7C7C7"/>
				</linearGradient>
				<path style="fill:url(#SVGID_00000150804870903558816690000003436753144247693197_);" d="M1136.149,561.904
					c-0.632,0,62.597-125.194,62.597-125.194l62.491,124.983L1136.149,561.904z"/>
				<path style="fill:#CED0DD;" d="M1073.602,687.097c-0.632,0,62.597-125.194,62.597-125.194l62.491,124.983L1073.602,687.097z"/>
				<path style="fill:#0C1E39;" d="M1198.686,436.71c0.632,0-62.597,125.194-62.597,125.194l-62.491-124.983L1198.686,436.71z"/>
			</g>
		</g>
	</g>
</g>
</svg>
